<svg width="50" height="51" viewBox="0 0 50 51" fill="none" xmlns="http://www.w3.org/2000/svg">
<g clip-path="url(#clip0_411_847)">
<path d="M25 50.7273C38.8071 50.7273 50 39.5344 50 25.7273C50 11.9201 38.8071 0.727264 25 0.727264C11.1929 0.727264 0 11.9201 0 25.7273C0 39.5344 11.1929 50.7273 25 50.7273Z" fill="#F0F0F0"/>
<path d="M25 0.727264C14.2508 0.727264 5.08726 7.51164 1.55493 17.0317H48.4451C44.9126 7.51164 35.7491 0.727264 25 0.727264V0.727264Z" fill="#A2001D"/>
<path d="M25 50.7273C35.7491 50.7273 44.9126 43.9429 48.445 34.4229H1.55493C5.08726 43.9429 14.2508 50.7273 25 50.7273Z" fill="#0052B4"/>
</g>
<defs>
<clipPath id="clip0_411_847">
<rect width="50" height="50" fill="white" transform="translate(0 0.727264)"/>
</clipPath>
</defs>
</svg>
