<svg width="50" height="51" viewBox="0 0 50 51" fill="none" xmlns="http://www.w3.org/2000/svg">
<g clip-path="url(#clip0_411_847)">
<path d="M35.8695 3.20793C32.5828 1.61867 28.8955 0.727264 25 0.727264C21.1045 0.727264 17.4172 1.61867 14.1305 3.20793L11.9565 25.7273L14.1305 48.2466C17.4172 49.8359 21.1045 50.7273 25 50.7273C28.8955 50.7273 32.5828 49.8359 35.8695 48.2466L38.0435 25.7273L35.8695 3.20793Z" fill="#FFDA44"/>
<path d="M24.9998 17.0316L27.158 23.6742H34.1431L28.4924 27.78L30.6507 34.4229L24.9998 30.3174L19.3489 34.4229L21.5076 27.78L15.8568 23.6742H22.8415L24.9998 17.0316Z" fill="#496E2D"/>
<path d="M14.1305 3.2088C5.76816 7.25245 0 15.8158 0 25.7273C0 35.6387 5.76816 44.2021 14.1305 48.2457V3.2088Z" fill="#496E2D"/>
<path d="M35.8695 3.2088V48.2457C44.2318 44.2021 50 35.6387 50 25.7273C50 15.8158 44.2318 7.25245 35.8695 3.2088Z" fill="#D80027"/>
</g>
<defs>
<clipPath id="clip0_411_847">
<rect width="50" height="50" fill="white" transform="translate(0 0.727264)"/>
</clipPath>
</defs>
</svg>
