<svg width="50" height="51" viewBox="0 0 50 51" fill="none" xmlns="http://www.w3.org/2000/svg">
<g clip-path="url(#clip0_409_848)">
<path d="M0 25.7273C0 36.4763 6.78438 45.6399 16.3042 49.1722L18.4782 25.7272L16.3042 2.28224C6.78438 5.81466 0 14.9781 0 25.7273Z" fill="#6DA544"/>
<path d="M50 25.7273C50 11.9202 38.807 0.727264 25 0.727264C21.942 0.727264 19.0126 1.27736 16.3042 2.28224V49.1723C19.0126 50.1773 21.942 50.7273 25 50.7273C38.807 50.7273 50 39.5343 50 25.7273Z" fill="#D80027"/>
<path d="M16.3044 34.4229C21.1068 34.4229 25 30.5297 25 25.7273C25 20.9248 21.1068 17.0317 16.3044 17.0317C11.5019 17.0317 7.60876 20.9248 7.60876 25.7273C7.60876 30.5297 11.5019 34.4229 16.3044 34.4229Z" fill="#FFDA44"/>
<path d="M11.4131 21.3794V26.8142C11.4131 29.5155 13.6029 31.7055 16.3044 31.7055C19.0059 31.7055 21.1957 29.5156 21.1957 26.8142V21.3794H11.4131Z" fill="#D80027"/>
<path d="M16.3044 28.4446C15.4054 28.4446 14.674 27.7132 14.674 26.8142V24.6404H17.9348V26.8143C17.9348 27.7132 17.2033 28.4446 16.3044 28.4446Z" fill="#F0F0F0"/>
</g>
<defs>
<clipPath id="clip0_409_848">
<rect width="50" height="50" fill="white" transform="translate(0 0.727264)"/>
</clipPath>
</defs>
</svg>
