<svg width="50" height="51" viewBox="0 0 50 51" fill="none" xmlns="http://www.w3.org/2000/svg">
<g clip-path="url(#clip0_411_860)">
<path d="M0 25.6364C0 28.6944 0.550098 31.6237 1.55498 34.332L25 36.5059L48.445 34.332C49.4499 31.6237 50 28.6944 50 25.6364C50 22.5783 49.4499 19.649 48.445 16.9407L25 14.7668L1.55498 16.9407C0.550098 19.649 0 22.5783 0 25.6364H0Z" fill="#FFDA44"/>
<path d="M48.445 16.9407C44.9126 7.42082 35.7491 0.636353 25 0.636353C14.2508 0.636353 5.08726 7.42082 1.55493 16.9407H48.445Z" fill="#D80027"/>
<path d="M1.55493 34.332C5.08726 43.8519 14.2508 50.6363 25 50.6363C35.7491 50.6363 44.9126 43.8519 48.445 34.332H1.55493Z" fill="#D80027"/>
</g>
<defs>
<clipPath id="clip0_411_860">
<rect width="50" height="50" fill="white" transform="translate(0 0.636353)"/>
</clipPath>
</defs>
</svg>
