<svg width="50" height="51" viewBox="0 0 50 51" fill="none" xmlns="http://www.w3.org/2000/svg">
<g clip-path="url(#clip0_411_895)">
<path d="M25 50.7273C38.8071 50.7273 50 39.5344 50 25.7273C50 11.9201 38.8071 0.727264 25 0.727264C11.1929 0.727264 0 11.9201 0 25.7273C0 39.5344 11.1929 50.7273 25 50.7273Z" fill="#D80027"/>
<path d="M25 37.6838C31.6034 37.6838 36.9565 32.3307 36.9565 25.7273C36.9565 19.1238 31.6034 13.7707 25 13.7707C18.3966 13.7707 13.0435 19.1238 13.0435 25.7273C13.0435 32.3307 18.3966 37.6838 25 37.6838Z" fill="#F0F0F0"/>
<path d="M26.473 21.1556L28.5241 23.9822L31.8461 22.9051L29.7917 25.7293L31.8427 28.5559L28.5218 27.4746L26.4674 30.2988L26.4695 26.8066L23.1487 25.7253L26.4708 24.6482L26.473 21.1556Z" fill="#D80027"/>
<path d="M27.7174 32.7925C23.8154 32.7925 20.6522 29.6292 20.6522 25.7273C20.6522 21.8253 23.8154 18.662 27.7174 18.662C28.934 18.662 30.0788 18.9696 31.0782 19.5112C29.5104 17.9779 27.3663 17.0316 25 17.0316C20.1977 17.0316 16.3044 20.9247 16.3044 25.7272C16.3044 30.5296 20.1977 34.4228 25 34.4228C27.3663 34.4228 29.5105 33.4764 31.0782 31.9431C30.0788 32.4849 28.934 32.7925 27.7174 32.7925Z" fill="#D80027"/>
</g>
<defs>
<clipPath id="clip0_411_895">
<rect width="50" height="50" fill="white" transform="translate(0 0.727264)"/>
</clipPath>
</defs>
</svg>
