<svg width="50" height="51" viewBox="0 0 50 51" fill="none" xmlns="http://www.w3.org/2000/svg">
<g clip-path="url(#clip0_411_895)">
<path d="M25 50.7273C38.8071 50.7273 50 39.5344 50 25.7273C50 11.9201 38.8071 0.727264 25 0.727264C11.1929 0.727264 0 11.9201 0 25.7273C0 39.5344 11.1929 50.7273 25 50.7273Z" fill="#F0F0F0"/>
<path d="M50 25.7273C50 14.9781 43.2156 5.81457 33.6956 2.28224V49.1724C43.2156 45.64 50 36.4764 50 25.7273V25.7273Z" fill="#D80027"/>
<path d="M0 25.7273C0 36.4764 6.78447 45.64 16.3044 49.1723V2.28224C6.78447 5.81457 0 14.9781 0 25.7273Z" fill="#0052B4"/>
</g>
<defs>
<clipPath id="clip0_411_895">
<rect width="50" height="50" fill="white" transform="translate(0 0.727264)"/>
</clipPath>
</defs>
</svg>
